<svg xmlns="http://www.w3.org/2000/svg" viewBox="0 0 152 152" role="img" aria-labelledby="title desc">
  <title id="title">Learning Design Mark</title>
  <desc id="desc">Green rounded square icon with connected nodes.</desc>
  <defs>
    <linearGradient id="bg" x1="0" y1="0" x2="1" y2="1">
      <stop offset="0" stop-color="#3CBF3A"/>
      <stop offset="1" stop-color="#2E9D2F"/>
    </linearGradient>
  </defs>
  <rect x="4" y="4" width="144" height="144" rx="22" fill="url(#bg)"/>

  <g stroke="#F5F7F3" stroke-width="4.8" fill="none" stroke-linecap="round" stroke-linejoin="round">
    <path d="M30 62 L60 40 L76 68 L46 94 Z"/>
    <path d="M76 68 L113 46"/>
    <path d="M76 68 L113 70"/>
    <path d="M76 68 L114 93"/>
    <path d="M46 94 L102 112"/>
    <path d="M76 68 L102 112"/>
  </g>

  <g fill="#F5F7F3">
    <circle cx="30" cy="62" r="10"/>
    <circle cx="60" cy="40" r="10"/>
    <circle cx="76" cy="68" r="10"/>
    <circle cx="46" cy="94" r="10"/>
    <circle cx="102" cy="112" r="10"/>
  </g>

  <g fill="#BDF03A">
    <circle cx="113" cy="46" r="8"/>
    <circle cx="113" cy="70" r="8"/>
    <circle cx="114" cy="93" r="8"/>
  </g>
</svg>
